<svg xmlns="http://www.w3.org/2000/svg" xmlns:xlink="http://www.w3.org/1999/xlink" width="500" zoomAndPan="magnify" viewBox="0 0 375 374.999991" height="500" preserveAspectRatio="xMidYMid meet" version="1.0"><defs><clipPath id="2707f3af80"><path d="M 55.304688 39.378906 L 320 39.378906 L 320 335.628906 L 55.304688 335.628906 Z M 55.304688 39.378906 " clip-rule="nonzero"/></clipPath></defs><rect x="-37.5" width="450" fill="#ffffff" y="-37.499999" height="449.999989" fill-opacity="1"/><rect x="-37.5" width="450" fill="#1e1e1e" y="-37.499999" height="449.999989" fill-opacity="1"/><g clip-path="url(#2707f3af80)"><path fill="#f9943b" d="M 158.808594 47.457031 C 168.691406 48.789062 178.183594 50.226562 187.730469 51.019531 C 197.488281 51.828125 207.417969 51.25 217.066406 52.613281 C 235.429688 55.210938 250.859375 63.359375 262.578125 77.632812 C 265.15625 80.773438 268.5 83.332031 272.398438 87.011719 C 267.699219 99.457031 255.296875 108.578125 248.824219 121.242188 C 263.703125 121.242188 278.601562 121.242188 293.496094 121.242188 C 293.578125 120.699219 293.664062 120.15625 293.746094 119.613281 C 288.464844 118.421875 283.242188 116.746094 277.890625 116.167969 C 272.367188 115.566406 266.714844 116.035156 260.507812 116.035156 C 262.542969 110.441406 266.507812 106.460938 270.367188 102.453125 C 271.59375 101.175781 273.078125 100.035156 274.652344 99.195312 C 275.96875 98.496094 277.738281 97.730469 279.050781 98.03125 C 285.152344 99.417969 291.332031 100.773438 297.132812 102.988281 C 299.355469 103.835938 300.808594 106.84375 302.335938 109.046875 C 304.386719 112 306.164062 115.128906 308.058594 118.179688 C 308.484375 118.054688 308.914062 117.925781 309.339844 117.796875 C 309.636719 116.84375 310.152344 115.894531 310.195312 114.929688 C 310.59375 105.484375 305.230469 99.425781 294.175781 96.792969 C 290.484375 95.914062 286.710938 95.328125 283.082031 94.269531 C 281.5 93.808594 279.421875 92.75 278.972656 91.496094 C 278.566406 90.363281 280.078125 88.589844 281.042969 86.417969 C 289.679688 89.101562 297.632812 91.644531 305.636719 94.035156 C 313.203125 96.296875 316.445312 102.140625 318.542969 108.691406 C 322.96875 122.523438 313.738281 134.132812 304.710938 139.765625 C 303.914062 140.265625 302.761719 140.234375 301.84375 140.429688 C 301.53125 139.632812 301.265625 139.308594 301.324219 139.050781 C 303.054688 131.308594 301.609375 130.230469 293.773438 132.070312 C 287.683594 133.5 281.355469 133.964844 275.144531 134.914062 C 262.949219 136.765625 251.210938 139.992188 240.902344 146.777344 C 229.441406 154.320312 225.332031 164.980469 226.113281 178.25 C 226.917969 191.914062 233.472656 202.910156 241.453125 213.414062 C 248.050781 222.09375 252.640625 231.453125 253.445312 242.296875 C 253.585938 244.222656 253.230469 246.1875 252.417969 248.351562 C 245.335938 237.4375 235.195312 229.789062 225.375 221.617188 C 232.316406 232.625 237.734375 244.027344 239.769531 256.90625 C 241.890625 270.296875 237.59375 282.011719 232.246094 293.664062 C 231.699219 293.707031 231.152344 293.75 230.605469 293.796875 C 228.53125 285.339844 226.460938 276.886719 224.335938 268.21875 C 221.355469 268.753906 221.011719 270.632812 220.96875 272.539062 C 220.480469 294.34375 208.871094 310.90625 193.957031 325.890625 C 190.878906 328.980469 187.5625 331.847656 183.527344 335.585938 C 183.199219 333.316406 182.894531 332.164062 182.886719 331.015625 C 182.847656 325.878906 182.757812 320.742188 182.925781 315.613281 C 183.492188 298.765625 176.828125 284.507812 166.136719 271.703125 C 162.195312 266.980469 158.257812 262.222656 153.933594 257.832031 C 148.03125 251.832031 145.429688 244.722656 144.617188 236.667969 C 143.5625 226.222656 142.183594 215.8125 140.945312 205.386719 C 140.378906 205.332031 139.8125 205.28125 139.242188 205.226562 C 137.546875 212.980469 135.851562 220.738281 134.023438 229.085938 C 129.65625 224.6875 128.921875 219.179688 126.878906 214.304688 C 124.867188 209.515625 125.675781 203.890625 122.992188 199.289062 C 122.617188 199.332031 122.242188 199.375 121.863281 199.421875 C 121.621094 200.441406 121.132812 201.472656 121.175781 202.484375 C 121.851562 218.644531 122.378906 234.820312 123.441406 250.957031 C 123.847656 257.132812 125.578125 263.21875 126.574219 269.363281 C 126.835938 270.980469 126.613281 272.671875 125.71875 274.605469 C 123.050781 271.640625 120.28125 268.757812 117.734375 265.703125 C 107.148438 253.007812 96.40625 240.414062 88.480469 225.914062 C 87.453125 224.03125 86.867188 221.722656 86.8125 219.59375 C 86.640625 212.859375 86.378906 206.078125 86.972656 199.386719 C 87.636719 191.949219 89.257812 184.597656 90.351562 177.191406 C 90.863281 173.734375 91.105469 170.238281 91.574219 165.757812 C 85.121094 168.800781 83.917969 175.097656 79.75 178.855469 C 75.28125 182.886719 71.171875 187.332031 67.289062 191.902344 C 63.554688 196.296875 60.308594 201.082031 56.847656 205.695312 C 56.453125 205.625 56.054688 205.554688 55.65625 205.484375 C 55.550781 203.09375 55.113281 200.664062 55.394531 198.316406 C 56.367188 190.230469 57.566406 182.167969 58.71875 174.105469 C 60.398438 162.394531 66.859375 153.015625 74.460938 144.203125 C 81.164062 136.4375 88.390625 129.183594 96.785156 123.074219 C 97.570312 122.5 98.257812 121.789062 98.921875 121.078125 C 99.09375 120.898438 99.003906 120.488281 99.105469 119.445312 C 83.601562 123.023438 69.238281 128.378906 56.5625 137.710938 C 56.191406 137.355469 55.824219 137 55.453125 136.648438 C 57.644531 132.933594 59.777344 129.179688 62.042969 125.507812 C 74.707031 104.964844 93.953125 92.191406 116.136719 82.882812 C 119.019531 81.675781 121.84375 80.335938 124.71875 79.109375 C 125.765625 78.660156 126.886719 78.367188 127.511719 77.207031 C 117.230469 73.785156 107.867188 70.964844 101.796875 62.40625 C 118.441406 65.695312 134.515625 63.078125 150.558594 60.125 C 150.734375 59.636719 150.90625 59.144531 151.082031 58.652344 C 150.214844 57.703125 149.328125 56.773438 148.488281 55.804688 C 144.910156 51.671875 141.265625 47.585938 137.832031 43.34375 C 137.128906 42.476562 137.226562 41.007812 136.867188 39.417969 C 144.425781 42.171875 151.433594 44.726562 158.808594 47.457031 Z M 158.808594 47.457031 " fill-opacity="1" fill-rule="nonzero"/></g><path fill="#ffffff" d="M 214.28125 80.527344 C 214.28125 80.972656 214.234375 81.414062 214.144531 81.851562 C 214.054688 82.285156 213.921875 82.710938 213.746094 83.121094 C 213.570312 83.53125 213.351562 83.921875 213.097656 84.292969 C 212.839844 84.664062 212.546875 85.007812 212.222656 85.320312 C 211.894531 85.636719 211.542969 85.917969 211.15625 86.164062 C 210.773438 86.410156 210.367188 86.621094 209.941406 86.789062 C 209.515625 86.960938 209.078125 87.089844 208.625 87.175781 C 208.171875 87.261719 207.714844 87.304688 207.253906 87.304688 C 206.792969 87.304688 206.335938 87.261719 205.882812 87.175781 C 205.429688 87.089844 204.992188 86.960938 204.566406 86.789062 C 204.140625 86.621094 203.734375 86.410156 203.351562 86.164062 C 202.96875 85.917969 202.613281 85.636719 202.285156 85.320312 C 201.960938 85.007812 201.667969 84.664062 201.414062 84.292969 C 201.15625 83.921875 200.941406 83.53125 200.761719 83.121094 C 200.585938 82.710938 200.453125 82.285156 200.363281 81.851562 C 200.273438 81.414062 200.226562 80.972656 200.226562 80.527344 C 200.226562 80.082031 200.273438 79.640625 200.363281 79.203125 C 200.453125 78.769531 200.585938 78.34375 200.761719 77.933594 C 200.941406 77.523438 201.15625 77.132812 201.414062 76.761719 C 201.667969 76.390625 201.960938 76.046875 202.285156 75.734375 C 202.613281 75.417969 202.96875 75.136719 203.351562 74.890625 C 203.734375 74.644531 204.140625 74.433594 204.566406 74.265625 C 204.992188 74.09375 205.429688 73.964844 205.882812 73.878906 C 206.335938 73.792969 206.792969 73.746094 207.253906 73.746094 C 207.714844 73.746094 208.171875 73.792969 208.625 73.878906 C 209.078125 73.964844 209.515625 74.09375 209.941406 74.265625 C 210.367188 74.433594 210.773438 74.644531 211.15625 74.890625 C 211.542969 75.136719 211.894531 75.417969 212.222656 75.734375 C 212.546875 76.046875 212.839844 76.390625 213.097656 76.761719 C 213.351562 77.132812 213.570312 77.523438 213.746094 77.933594 C 213.921875 78.34375 214.054688 78.769531 214.144531 79.203125 C 214.234375 79.640625 214.28125 80.082031 214.28125 80.527344 Z M 214.28125 80.527344 " fill-opacity="1" fill-rule="nonzero"/></svg>